<svg xmlns="http://www.w3.org/2000/svg" viewBox="0 0 80 80">
  <defs>
    <linearGradient id="bm-g" x1="0" y1="0" x2="1" y2="1">
      <stop offset="0%" stop-color="#2f7a60" />
      <stop offset="100%" stop-color="#0e3b2c" />
    </linearGradient>
    <linearGradient id="bm-gold" x1="0" y1="0" x2="0" y2="1">
      <stop offset="0%" stop-color="#e8d6a8" />
      <stop offset="100%" stop-color="#a78538" />
    </linearGradient>
  </defs>
  <circle cx="40" cy="40" r="38" fill="url(#bm-g)" />
  <circle cx="40" cy="40" r="34" fill="none" stroke="url(#bm-gold)" stroke-width="0.6" />
  <path d="M20 48 C 28 42, 36 42, 40 46 C 44 42, 52 42, 60 48 L 60 56 C 52 50, 44 50, 40 54 C 36 50, 28 50, 20 56 Z" fill="#fbf8f2" opacity="0.96" />
  <path d="M40 46 L 40 54" stroke="#0e3b2c" stroke-width="0.6" />
  <path d="M40 46 C 42 38, 48 32, 56 30 C 54 38, 50 44, 42 46 Z" fill="#e8d6a8" />
  <path d="M40 46 C 38 40, 34 36, 28 35 C 30 41, 34 45, 40 46 Z" fill="#c9a961" />
  <circle cx="40" cy="46" r="1.2" fill="#0e3b2c" />
</svg>
